<svg width="55" height="55" viewBox="0 0 55 55" fill="none" xmlns="http://www.w3.org/2000/svg">
<path d="M47.5673 25.4051C49.1779 24.2733 50.2444 22.3907 50.2444 20.2686C50.2444 16.7971 47.4367 13.9894 43.9652 13.9894C40.4937 13.9894 37.686 16.7971 37.686 20.2686C37.686 22.3907 38.7416 24.2733 40.3631 25.4051C38.981 25.8839 37.7186 26.6239 36.6522 27.5816C35.183 26.3301 33.4527 25.3725 31.5592 24.8066C33.8554 23.4136 35.4007 20.878 35.4007 17.9941C35.4007 13.5976 31.8421 10.0391 27.4456 10.0391C23.0491 10.0391 19.4905 13.6085 19.4905 17.9941C19.4905 20.878 21.0249 23.4136 23.332 24.8066C21.4602 25.3725 19.7517 26.3192 18.2934 27.549C17.2269 26.6131 15.9863 25.8839 14.626 25.416C16.2366 24.2842 17.3031 22.4016 17.3031 20.2795C17.3031 16.808 14.4954 14.0003 11.0239 14.0003C7.55243 14.0003 4.74476 16.808 4.74476 20.2795C4.74476 22.4016 5.80036 24.2842 7.42184 25.416C3.1015 26.9069 0 31.0096 0 35.8305V36.5488C0 36.5705 0.0217649 36.5923 0.0435299 36.5923H13.3528C13.2766 37.1908 13.2331 37.8111 13.2331 38.4314V39.1714C13.2331 42.3709 15.8231 44.9609 19.0226 44.9609H35.8904C39.0898 44.9609 41.6799 42.3709 41.6799 39.1714V38.4314C41.6799 37.8111 41.6363 37.1908 41.5602 36.5923H54.9565C54.9782 36.5923 55 36.5705 55 36.5488V35.8305C54.9782 30.9987 51.8876 26.896 47.5673 25.4051ZM39.4272 20.2577C39.4272 17.7547 41.4622 15.7197 43.9652 15.7197C46.4681 15.7197 48.5032 17.7547 48.5032 20.2577C48.5032 22.728 46.5117 24.7413 44.0522 24.7957C44.0196 24.7957 43.9978 24.7957 43.9652 24.7957C43.9325 24.7957 43.9108 24.7957 43.8781 24.7957C41.4078 24.7522 39.4272 22.7389 39.4272 20.2577ZM21.2099 17.9941C21.2099 14.5662 23.9958 11.7803 27.4238 11.7803C30.8518 11.7803 33.6377 14.5662 33.6377 17.9941C33.6377 21.3024 31.0368 24.0122 27.7829 24.1972C27.6632 24.1972 27.5435 24.1972 27.4238 24.1972C27.3041 24.1972 27.1844 24.1972 27.0647 24.1972C23.8108 24.0122 21.2099 21.3024 21.2099 17.9941ZM6.4533 20.2577C6.4533 17.7547 8.48833 15.7197 10.9913 15.7197C13.4943 15.7197 15.5293 17.7547 15.5293 20.2577C15.5293 22.728 13.5378 24.7413 11.0784 24.7957C11.0457 24.7957 11.0239 24.7957 10.9913 24.7957C10.9586 24.7957 10.9369 24.7957 10.9042 24.7957C8.4448 24.7522 6.4533 22.7389 6.4533 20.2577ZM13.6575 34.8402H1.76296C2.25267 30.2043 6.17036 26.5695 10.926 26.5369C10.9478 26.5369 10.9695 26.5369 10.9913 26.5369C11.0131 26.5369 11.0348 26.5369 11.0566 26.5369C13.3201 26.5478 15.3878 27.3857 16.9875 28.746C15.4205 30.4437 14.256 32.5331 13.6575 34.8402ZM39.9169 39.1714C39.9169 41.4023 38.0995 43.2197 35.8686 43.2197H19.0008C16.7699 43.2197 14.9525 41.4023 14.9525 39.1714V38.4314C14.9525 31.6734 20.3502 26.1451 27.0647 25.9492C27.1844 25.9601 27.315 25.9601 27.4347 25.9601C27.5544 25.9601 27.685 25.9601 27.8047 25.9492C34.5192 26.1451 39.9169 31.6734 39.9169 38.4314V39.1714ZM41.2119 34.8402C40.6134 32.544 39.4707 30.4872 37.9145 28.7896C39.5251 27.3966 41.6146 26.5587 43.8999 26.5369C43.9216 26.5369 43.9434 26.5369 43.9652 26.5369C43.9869 26.5369 44.0087 26.5369 44.0305 26.5369C48.7861 26.5695 52.7038 30.2043 53.1935 34.8402H41.2119Z" fill="black"/>
</svg>
