<svg width="55" height="55" viewBox="0 0 55 55" fill="none" xmlns="http://www.w3.org/2000/svg">
<path d="M27.5 0C16.8382 0 8.16406 8.6741 8.16406 19.3359C8.16406 22.9382 9.1619 26.4537 11.0504 29.5036L26.3994 54.2383C26.6934 54.7121 27.2114 55 27.7684 55C27.7727 55 27.7769 55 27.7812 55C28.3432 54.9956 28.8622 54.6988 29.1509 54.2167L44.1086 29.2424C45.8929 26.2569 46.8359 22.8313 46.8359 19.3359C46.8359 8.6741 38.1618 0 27.5 0ZM41.343 27.5879L27.7441 50.2934L13.7894 27.8057C12.2175 25.2671 11.3652 22.3384 11.3652 19.3359C11.3652 10.4511 18.6151 3.20117 27.5 3.20117C36.3849 3.20117 43.624 10.4511 43.624 19.3359C43.624 22.2493 42.8279 25.1032 41.343 27.5879Z" fill="black"/>
<path d="M27.5 9.66797C22.1691 9.66797 17.832 14.005 17.832 19.3359C17.832 24.6328 22.0985 29.0039 27.5 29.0039C32.9681 29.0039 37.168 24.5746 37.168 19.3359C37.168 14.005 32.8309 9.66797 27.5 9.66797ZM27.5 25.8027C23.9275 25.8027 21.0332 22.8988 21.0332 19.3359C21.0332 15.782 23.9461 12.8691 27.5 12.8691C31.0539 12.8691 33.9561 15.782 33.9561 19.3359C33.9561 22.8468 31.1291 25.8027 27.5 25.8027Z" fill="black"/>
</svg>
