<svg width="35" height="35" viewBox="0 0 35 35" fill="none" xmlns="http://www.w3.org/2000/svg">
    <path d="M30.9758 1.36673C28.5524 0.800161 26.0067 0.497803 23.3803 0.497803C20.754 0.497803 18.2083 0.800229 15.7849 1.36673C13.563 1.88613 12.0821 3.99034 12.3053 6.2612C12.4993 8.23634 12.9478 10.1523 13.6214 11.9833L14.2596 12.6773L19.8893 13.6344L21.7009 15.8219L21.3591 21.4587L21.6104 22.6907C23.2197 23.3666 25.1371 23.0806 26.4843 21.8306C30.9692 17.6698 33.8685 12.2337 34.4554 6.26114C34.6785 3.99034 33.1977 1.8862 30.9758 1.36673Z" fill="black"/>
    <path d="M16.9052 5.57757C16.682 3.3067 18.1629 1.20257 20.3848 0.683165C20.5061 0.654796 20.628 0.627588 20.75 0.600586C19.0494 0.732932 17.3902 0.991539 15.785 1.36677C13.563 1.88617 12.0822 3.99038 12.3053 6.26124C12.4994 8.23638 12.9479 10.1523 13.6215 11.9834L14.2597 12.6773L19.1629 13.5109C17.9564 11.0331 17.1789 8.3638 16.9052 5.57757Z" fill="black"/>
    <path d="M24.8762 21.1471C23.6625 20.0211 22.566 18.8009 21.5989 17.5027L21.3591 21.4588L21.6104 22.6908C23.1314 23.3296 24.9273 23.1086 26.2573 22.0273C25.76 21.825 25.291 21.5319 24.8762 21.1471Z" fill="black"/>
    <path d="M27.304 9.19195L24.8627 9.7147C24.7003 9.7147 24.5867 9.55399 24.6409 9.40086L26.5401 4.04093C26.6545 3.7182 26.3862 3.38904 26.0471 3.43587L20.5814 4.1907C20.3763 4.219 20.2159 4.38177 20.1905 4.58726L19.2875 11.907C19.2516 12.1978 19.503 12.4427 19.7928 12.3992L22.6973 11.963C22.8657 11.963 22.9932 12.1153 22.9635 12.2812L22.3121 15.3979L22.2137 15.6738L22.4187 17.041L22.6938 17.3806L27.5028 9.55303C27.6019 9.39635 27.4893 9.19195 27.304 9.19195Z" fill="white"/>
    <path d="M24.6567 10.6073L22.5503 10.9407C22.2204 10.9929 21.9389 10.7016 22.0024 10.3737L23.2711 3.81934L20.5815 4.19081C20.3764 4.21911 20.216 4.38187 20.1906 4.58737L19.2736 12.0203C19.2447 12.2543 19.4469 12.4512 19.68 12.4162L22.6973 11.963C22.8658 11.963 22.9933 12.1154 22.9635 12.2812L22.3121 15.398L22.2137 15.6739L22.4112 16.9903L24.8931 10.9053C24.9572 10.7479 24.8247 10.5807 24.6567 10.6073Z" fill="white"/>
    <path d="M19.1955 12.7918C16.7721 12.2252 14.2264 11.9229 11.6 11.9229C8.97367 11.9229 6.42793 12.2253 4.00455 12.7918C1.78263 13.3112 0.30181 15.4154 0.524938 17.6863C1.11181 23.6588 4.01125 29.0949 8.49604 33.2557C10.2449 34.8782 12.9552 34.8782 14.7041 33.2557C19.1889 29.0949 22.0883 23.6588 22.6752 17.6862C22.8982 15.4154 21.4173 13.3113 19.1955 12.7918Z" fill="black"/>
    <path d="M13.0959 32.5722C8.61116 28.4114 5.71172 22.9753 5.12484 17.0028C4.90172 14.7319 6.38254 12.6277 8.60446 12.1083C8.7258 12.0799 8.84768 12.0527 8.96964 12.0256C7.26911 12.158 5.60986 12.4166 4.00455 12.7919C1.78263 13.3113 0.30181 15.4155 0.524938 17.6864C1.11181 23.6589 4.01125 29.095 8.49604 33.2558C10.1711 34.8098 12.7274 34.8744 14.4769 33.4516C13.9797 33.2493 13.5106 32.957 13.0959 32.5722Z" fill="black"/>
    <path d="M14.2596 25.3607C15.2974 25.3607 16.1387 24.7479 16.1387 23.992C16.1387 23.2361 15.2974 22.6233 14.2596 22.6233C13.2218 22.6233 12.3806 23.2361 12.3806 23.992C12.3806 24.7479 13.2218 25.3607 14.2596 25.3607Z" fill="white"/>
    <path d="M14.1689 23.992C14.1689 23.4718 14.5672 23.0195 15.1538 22.788C14.8878 22.683 14.5833 22.6233 14.2595 22.6233C13.2218 22.6233 12.3806 23.2361 12.3806 23.992C12.3806 24.7479 13.2219 25.3607 14.2595 25.3607C14.5832 25.3607 14.8878 25.3011 15.1538 25.1961C14.5672 24.9645 14.1689 24.5121 14.1689 23.992Z" fill="white"/>
    <path d="M16.1386 19.0598L9.79028 21.4589V18.9573L15.7332 16.7115C15.9291 16.6375 16.1386 16.7823 16.1386 16.9917V19.0598Z" fill="white"/>
    <path d="M11.4967 18.3125L9.79041 18.9573V21.4588L11.4967 20.814V18.3125Z" fill="white"/>
    <path d="M7.98679 27.7598C9.02457 27.7598 9.86585 27.1471 9.86585 26.3912C9.86585 25.6352 9.02457 25.0225 7.98679 25.0225C6.94901 25.0225 6.10773 25.6352 6.10773 26.3912C6.10773 27.1471 6.94901 27.7598 7.98679 27.7598Z" fill="white"/>
    <path d="M7.89608 26.3911C7.89608 25.8709 8.29441 25.4187 8.88094 25.1871C8.61502 25.0821 8.31048 25.0225 7.98673 25.0225C6.94896 25.0225 6.10767 25.6352 6.10767 26.3912C6.10767 27.1471 6.94896 27.7598 7.98673 27.7598C8.31041 27.7598 8.61502 27.7002 8.88094 27.5952C8.29441 27.3636 7.89608 26.9112 7.89608 26.3911Z" fill="white"/>
    <path d="M14.2689 22.1269C12.9273 22.1269 11.8764 22.9535 11.8764 24.0087C11.8764 25.0639 12.9273 25.8906 14.2689 25.8906C15.6104 25.8906 16.6613 25.0639 16.6613 24.0087C16.6613 23.2759 16.6613 17.3213 16.6613 16.5722C16.6613 16.2154 16.3011 15.9645 15.9654 16.0933C15.8767 16.1273 9.76452 18.4648 9.68631 18.4953C9.48957 18.5726 9.36092 18.7633 9.36092 18.9722V24.8554C8.97577 24.6476 8.5062 24.5268 7.99391 24.5268C6.65234 24.5268 5.6015 25.3535 5.6015 26.4087C5.6015 27.4639 6.65234 28.2906 7.99391 28.2906C9.33549 28.2906 10.3863 27.4639 10.3863 26.4087V21.8274L15.6359 19.8196V22.4554C15.2507 22.2477 14.7811 22.1269 14.2689 22.1269ZM14.2689 24.8652C13.5407 24.8652 12.9018 24.465 12.9018 24.0088C12.9018 23.5526 13.5407 23.1524 14.2689 23.1524C14.997 23.1524 15.6359 23.5526 15.6359 24.0088C15.6359 24.465 14.997 24.8652 14.2689 24.8652ZM7.99391 27.2651C7.26574 27.2651 6.62691 26.865 6.62691 26.4087C6.62691 25.9524 7.26574 25.5522 7.99391 25.5522C8.72209 25.5522 9.36092 25.9524 9.36092 26.4087C9.36092 26.865 8.72209 27.2651 7.99391 27.2651ZM10.3863 20.7296V19.325L15.6359 17.3173V18.7219L10.3863 20.7296Z" fill="white"/>
    <path d="M30.3287 16.5028C30.1754 16.7407 30.2439 17.0581 30.482 17.2115C30.7199 17.3648 31.0372 17.2963 31.1907 17.0582C33.3286 13.7406 34.602 10.131 34.9754 6.32966C35.2239 3.80046 33.5588 1.46014 31.1023 0.885842C26.1336 -0.275739 20.7746 -0.305613 15.678 0.885842C13.2214 1.46014 11.5563 3.80046 11.8048 6.32966C11.9751 8.0628 12.3418 9.78282 12.8964 11.4533C12.4682 11.4373 12.0393 11.4285 11.6098 11.4285C10.7595 11.4285 9.8961 11.4609 9.04371 11.5245C8.76131 11.5457 8.54953 11.7917 8.57059 12.074C8.59171 12.3565 8.83931 12.5669 9.12007 12.5471C9.94723 12.4853 10.7848 12.4539 11.6098 12.4539C13.4445 12.4539 15.3014 12.608 17.1063 12.9121C19.2446 13.2721 20.0917 13.4804 20.9777 14.3528C21.8698 15.2316 22.2924 16.4559 22.1747 17.6545C21.604 23.4645 18.735 28.8441 14.3652 32.8982C12.8188 34.3328 10.3983 34.3303 8.85455 32.8982C4.37619 28.7433 1.60274 23.3297 1.04506 17.6545C0.846674 15.6351 2.17341 13.7671 4.13119 13.3094C4.99574 13.1073 5.88634 12.9381 6.77817 12.8067C7.05832 12.7654 7.25198 12.5048 7.21062 12.2247C7.16933 11.9444 6.9082 11.751 6.6286 11.7922C5.70867 11.9278 4.78998 12.1024 3.89781 12.3109C1.44121 12.8851 -0.223851 15.2256 0.0246397 17.7548C0.624366 23.8589 3.58253 29.4057 8.15728 33.65C10.0935 35.4462 13.1267 35.4462 15.0627 33.65C18.2294 30.7121 20.5706 27.2043 21.9375 23.3656C23.6361 23.8716 25.5122 23.4597 26.843 22.2249C27.9037 21.2408 28.889 20.1721 29.7714 19.0483C29.9464 18.8256 29.9075 18.5034 29.6848 18.3285C29.4623 18.1536 29.1398 18.1924 28.965 18.4151C28.1156 19.4967 27.167 20.5256 26.1456 21.4732C25.0976 22.4454 23.6151 22.7848 22.2602 22.3924C22.8894 20.3518 23.1612 18.3929 23.2104 17.5539L27.946 9.8455C28.3067 9.27558 27.7764 8.58733 27.2067 8.70901L25.3021 9.11685L27.0334 4.23058C27.2763 3.54506 26.7061 2.8469 25.9869 2.94643L20.5214 3.7012C20.0867 3.76122 19.7455 4.10726 19.6917 4.54292L18.749 12.183C17.2064 11.8514 15.6168 11.6255 14 11.5118C13.3962 9.7943 13.0014 8.01891 12.8254 6.22944C12.627 4.21007 13.9538 2.34212 15.9115 1.88431C20.729 0.758144 25.9281 0.729228 30.8691 1.88431C32.8269 2.34199 34.1536 4.21 33.9552 6.22944C33.5976 9.86697 32.3776 13.3235 30.3287 16.5028ZM22.0834 14.0516C21.6766 13.5495 21.1954 13.1354 20.619 12.8133L22.3981 12.5462L22.0834 14.0516ZM20.704 4.71109L26.036 3.97478L24.1675 9.24817C23.9678 9.81173 24.4841 10.3404 24.9799 10.2345L26.7343 9.85883L23.0323 15.8845C22.9957 15.7536 22.8982 15.4701 22.8563 15.3653L23.4753 12.4044C23.5861 11.8727 23.1098 11.4021 22.631 11.4744L19.8175 11.8969L20.704 4.71109Z" fill="black"/>
</svg>
