<svg width="55" height="55" viewBox="0 0 55 55" fill="none" xmlns="http://www.w3.org/2000/svg">
<g clip-path="url(#clip0)">
<path d="M27.5001 0C12.3365 0 0 13.4583 0 30V43.75C0 44.4403 0.559688 45 1.25004 45H5.00004V50.0001C5.00004 52.7576 7.24243 55.0001 10.0001 55.0001H13.7501C14.441 55.0001 15.0001 54.441 15.0001 53.7501V31.2501C15.0001 30.5591 14.441 30 13.7501 30H10.0001C7.24254 30 5.00004 32.2424 5.00004 35.0001V30C5.00004 16.2147 15.094 5.00004 27.5001 5.00004C39.9061 5.00004 50.0001 16.2147 50.0001 30V35.0001C50.0001 32.2424 47.7576 30 45 30H41.25C40.5591 30 40 30.5591 40 31.2501V53.7501C40 54.441 40.5591 55.0001 41.25 55.0001H45C47.7576 55.0001 50.0001 52.7577 50.0001 50.0001V45H53.7501C54.4404 45 55.0001 44.4403 55.0001 43.75V30C55 13.4583 42.6637 0 27.5001 0Z" fill="black"/>
</g>
<defs>
<clipPath id="clip0">
<rect width="55" height="55" fill="white"/>
</clipPath>
</defs>
</svg>
